<?xml version="1.0" encoding="UTF-8" standalone="no"?>
<!-- Created with Inkscape (http://www.inkscape.org/) -->

<svg
   width="1078.3488"
   height="1076.2531"
   viewBox="0 0 1078.3487 1076.2531"
   version="1.1"
   id="svg1"
   xml:space="preserve"
   sodipodi:docname="Akonta green -DPnew.svg"
   inkscape:version="1.4.3 (0d15f750, 2025-12-25)"
   xmlns:inkscape="http://www.inkscape.org/namespaces/inkscape"
   xmlns:sodipodi="http://sodipodi.sourceforge.net/DTD/sodipodi-0.dtd"
   xmlns="http://www.w3.org/2000/svg"
   xmlns:svg="http://www.w3.org/2000/svg"><sodipodi:namedview
     id="namedview1"
     pagecolor="#ffffff"
     bordercolor="#000000"
     borderopacity="0.25"
     inkscape:showpageshadow="2"
     inkscape:pageopacity="0.0"
     inkscape:pagecheckerboard="0"
     inkscape:deskcolor="#d1d1d1"
     inkscape:zoom="0.52589862"
     inkscape:cx="659.82298"
     inkscape:cy="218.67332"
     inkscape:window-width="1338"
     inkscape:window-height="715"
     inkscape:window-x="0"
     inkscape:window-y="25"
     inkscape:window-maximized="0"
     inkscape:current-layer="layer1"
     showguides="true"><sodipodi:guide
       position="408.74884,651.3694"
       orientation="0,-1"
       id="guide2"
       inkscape:locked="false" /><sodipodi:guide
       position="462.53158,527.66908"
       orientation="0,-1"
       id="guide3"
       inkscape:locked="false" /></sodipodi:namedview><defs
     id="defs1" /><g
     id="layer1"
     transform="translate(-2.3585047,-3.8162526)"><rect
       style="fill:#000000;fill-opacity:1;stroke:none;stroke-width:5.00001;stroke-linecap:square;stroke-miterlimit:13.9;paint-order:fill markers stroke"
       id="rect4"
       width="1078.3488"
       height="1076.2531"
       x="2.3585532"
       y="3.8162527" /><g
       id="g1"
       transform="matrix(0.22094328,0,0,0.22094328,45.81292,383.97803)"
       style="stroke-width:4.52606"
       inkscape:export-filename="fav-Akonta.svg"
       inkscape:export-xdpi="96"
       inkscape:export-ydpi="96"><path
         id="path12"
         style="fill:#379d2e;fill-opacity:1;stroke-width:22.6303;stroke-linecap:square;stroke-miterlimit:13.9;paint-order:fill markers stroke"
         d="m 896.79508,479.54331 c -10e-5,158.96713 -134.34115,287.8354 -300.05934,287.8354 -73.12787,0 -149.22301,-25.76331 -201.28375,-67.46411 -3.1125,-2.49309 -7.37056,-3.27045 -12.05614,-3.00564 -15.07648,0.85223 -34.57824,12.49463 -34.57824,12.49463 l -38.15964,17.09072 c 0,0 3.29712,-74.44574 4.09961,-109.98972 0.16263,-7.19884 -0.35506,-13.87335 -1.92377,-16.97539 -19.18641,-37.92917 -21.03262,-74.99657 -21.03262,-119.98623 -1.1e-4,-158.96725 139.21636,-287.83575 304.93455,-287.83575 165.71829,0 300.05945,128.8685 300.05934,287.83575 z" /><g
         id="g15"
         transform="translate(1724.7494,77.21773)"
         style="fill:#ffffff;stroke-width:4.52606"><path
           style="fill:#ffffff;fill-opacity:1;stroke:none;stroke-width:22.6301;stroke-linecap:square;stroke-miterlimit:13.9;paint-order:fill markers stroke"
           d="m -1235.4458,492.40181 c -19.9834,3.8e-4 -36.1828,15.54068 -36.1823,34.71009 4e-4,19.16875 16.1996,34.70801 36.1823,34.7084 19.9835,5.7e-4 36.1838,-15.53897 36.1842,-34.7084 6e-4,-19.1701 -16.2,-34.71067 -36.1842,-34.71009 z"
           id="path14" /><path
           style="fill:#ffffff;fill-opacity:1;stroke:none;stroke-width:22.6301;stroke-linecap:square;stroke-miterlimit:13.9;paint-order:fill markers stroke"
           d="m -1159.104,242.80741 -1.0506,2.42383 -1.5942,3.68154 -91.4555,209.86457 62.2392,0.52228 54.3556,-134.66614 80.6567,236.88408 66.6783,0.32549 -111.0981,-319.01874 -6.5196,0.0691 z"
           id="path13" /></g></g><g
       id="text1"
       style="font-weight:bold;font-size:161.694px;line-height:0.9;font-family:'DIN Alternate';-inkscape-font-specification:'DIN Alternate, Bold';letter-spacing:6.23388px;word-spacing:-0.890554px;fill:#ffffff;stroke-width:5;stroke-linecap:square;stroke-miterlimit:13.9;paint-order:fill markers stroke"
       aria-label="Akonta AI"><path
         d="m 343.57894,505.59185 16.65891,-50.29252 h 0.31581 l 16.6589,50.29252 z m 47.5292,41.21302 h 18.39585 L 367.65935,431.69264 H 353.0532 l -41.84464,115.11223 h 18.47481 l 8.84264,-25.7384 h 43.66054 z m 35.44617,0 h 16.501 v -23.60669 l 12.94816,-14.6851 v 0 l 21.79079,38.29179 h 20.68546 l -32.13352,-49.97671 28.26487,-31.97562 h -19.73804 l -31.50191,38.4497 h -0.31581 v -71.6096 h -16.501 z m 84.15966,-41.05512 q 0,12.94816 2.1317,19.73804 2.21066,6.78989 6.78989,11.76387 3.39494,3.86866 9.47426,6.94779 6.00036,3.39494 15.39567,3.55285 9.71111,-0.15791 15.71147,-3.55285 3.23704,-1.42114 5.2898,-3.39494 2.28961,-1.73695 3.86865,-3.55285 4.89504,-4.97398 6.94779,-11.76387 1.97381,-6.78988 1.97381,-19.73804 0,-12.94815 -1.97381,-19.89594 -2.05275,-6.78988 -6.94779,-11.44806 -3.23704,-4.10551 -9.15845,-7.34255 -6.00036,-3.07913 -15.71147,-3.23704 -9.39531,0.15791 -15.39567,3.23704 -6.07932,3.23704 -9.47426,7.34255 -4.57923,4.65818 -6.78989,11.44806 -2.1317,6.94779 -2.1317,19.89594 z m 51.08204,0.15791 q 0,8.36893 -0.78953,12.31653 -0.78952,4.02656 -3.23703,7.1057 -1.8159,2.36856 -5.36875,4.18446 -3.39494,1.73695 -7.89521,1.73695 -4.18447,0 -7.73732,-1.73695 -3.39494,-1.8159 -5.52665,-4.18446 -2.1317,-3.07914 -3.07913,-7.1057 -0.94742,-3.9476 -0.94742,-12.47444 0,-8.60578 0.94742,-12.63234 0.94743,-3.86866 3.07913,-6.78989 2.13171,-2.76332 5.52665,-4.34236 3.55285,-1.658 7.73732,-1.658 4.50027,0 7.89521,1.658 3.55285,1.57904 5.36875,4.34236 2.44751,2.92123 3.23703,6.78989 0.78953,4.02656 0.78953,12.79025 z m 40.0254,40.89721 h 16.501 v -48.79243 q 0,-8.60578 4.65818,-13.10605 4.57922,-4.57923 11.68492,-4.57923 7.10569,0 11.60596,4.57923 4.57923,4.50027 4.57923,13.10605 v 48.79243 h 16.501 v -54.47698 q -0.39477,-14.05348 -8.76369,-21.31708 -8.44788,-7.18465 -18.63271,-7.18465 -13.18501,0 -21.31708,9.71112 h -0.31581 v -8.68474 h -16.501 z m 94.02867,-81.95233 h -8.21103 v 12.55339 h 8.21103 v 49.18719 q 0,9.71111 5.68455,14.843 5.52665,5.36875 14.21139,5.36875 h 8.60578 V 531.2513 h -6.15827 q -6.00036,0.1579 -5.84246,-6.07932 v -47.76605 h 12.00073 v -12.55339 h -12.00073 v -24.94888 h -16.50099 z m 93.23914,81.95233 h 16.501 V 490.8278 q -0.1579,-15.00091 -9.3953,-21.15918 -9.2374,-6.00036 -24.71202,-5.84246 -18.3169,-0.31581 -27.71221,12.00073 l 12.94815,9.86902 v 0 q 2.13171,-3.55285 5.84246,-5.05294 3.55285,-1.26323 9.71112,-1.26323 16.97471,-0.31581 16.8168,10.50063 v 8.60579 h -22.81717 q -13.10605,0.1579 -19.89594,7.10569 -6.78988,6.78988 -6.78988,17.13262 0,10.81644 7.81626,17.76423 7.4215,7.10569 21.15918,7.2636 8.36892,0 13.10605,-2.05276 4.81608,-1.9738 7.1057,-6.15827 h 0.3158 z m 0,-28.81753 q 0,9.2374 -3.86865,11.84282 -4.26342,2.60542 -14.60615,2.44752 -8.21102,0 -11.76387,-3.23704 -3.71075,-2.92123 -3.71075,-7.1057 -0.1579,-9.55321 14.21139,-9.86901 h 19.73803 z"
         id="path3" /><path
         style="fill:#008000"
         d="m 899.11978,505.59185 16.6589,-50.29252 h 0.31581 l 16.6589,50.29252 z m 47.52919,41.21302 h 18.39585 L 923.20018,431.69264 H 908.59403 L 866.7494,546.80487 h 18.4748 l 8.84264,-25.7384 h 43.66054 z m 36.94625,0 h 17.44838 V 431.69264 h -17.44838 z"
         id="path4" /></g></g></svg>
