<?xml version="1.0" encoding="UTF-8" standalone="no"?>
<!-- Created with Inkscape (http://www.inkscape.org/) -->

<svg
   width="319.97095"
   height="250.1011"
   viewBox="0 0 84.658976 66.172584"
   version="1.1"
   id="svg1"
   xml:space="preserve"
   xmlns="http://www.w3.org/2000/svg"
   xmlns:svg="http://www.w3.org/2000/svg"><defs
     id="defs1" /><g
     id="layer1"
     transform="translate(-327.93504,-99.972618)"><rect
       style="display:none;fill:#000000;fill-opacity:1;stroke-width:1.32292;stroke-linecap:square;stroke-miterlimit:13.9;paint-order:fill markers stroke"
       id="rect7-5"
       width="285.1131"
       height="278.90097"
       x="309.83249"
       y="4.0191894" /><g
       id="g44"
       transform="translate(0,-3.1278226)"><path
         id="path35"
         style="fill:#facc52;fill-opacity:1;stroke-width:1"
         d="m 369.12056,103.31819 c -6.57292,0.026 -13.17616,-0.55307 -19.71875,0.0781 -3.59438,0.34675 -6.93782,2.26432 -9.92807,4.36628 -6.06349,4.08737 -10.16718,10.83152 -11.2124,18.04944 -0.53955,3.55547 -0.29286,7.18323 -0.089,10.71885 0.15653,2.47572 0.51315,4.95445 1.42475,7.27641 1.15906,3.33438 3.04621,6.35618 5.33944,8.92557 1.36095,1.55621 2.87412,2.9683 4.3305,4.43298 0.0559,3.64111 -0.0467,7.28818 0.12605,10.92535 0.0672,0.51138 0.86205,1.04762 0.86205,1.04762 0,0 0.88808,0.20672 1.30096,0.10711 2.17867,-0.60668 4.12235,-1.83328 6.13242,-2.83882 2.38017,-1.27234 4.74487,-2.5733 7.11172,-3.87017 10.19141,-0.0696 20.38411,-0.0269 30.57455,-0.18902 2.46165,-0.0385 4.95307,-0.24057 7.26915,-1.13909 8.2282,-2.53893 15.15324,-8.96698 18.21206,-17.02645 1.18682,-3.06349 1.82261,-6.34298 1.72898,-9.6333 -0.008,-3.22464 0.006,-6.47204 -0.29502,-9.65214 -0.54425,-3.27813 -1.86617,-6.40642 -3.59714,-9.23109 -2.62956,-4.08064 -6.34331,-7.48461 -10.66141,-9.70737 -3.401,-1.68637 -7.18335,-2.67016 -10.99193,-2.6162 -5.97208,-0.10479 -11.94626,-0.0241 -17.91892,-0.0241 z m -5.88086,1.66211 c 8.58301,0.0156 17.17131,-0.02 25.74823,0.34075 2.92243,0.13007 5.7359,1.16842 8.33491,2.4557 6.40393,3.28289 11.45329,9.41262 12.87025,16.52914 0.36822,3.03021 0.18497,6.09543 0.23693,9.14121 -0.0335,2.86351 0.17557,5.81767 -0.83687,8.55591 -2.12688,6.91422 -7.19327,12.86903 -13.73632,15.97797 -3.70834,1.78454 -7.81966,2.75107 -11.94116,2.68872 -9.14319,0.12991 -18.28941,-0.0376 -27.4318,0.14382 -1.12768,0.0218 -2.30938,0.0475 -3.27526,0.70997 -3.99197,2.06397 -7.43395,4.23643 -11.52432,6.10252 -0.15798,0.0721 -0.42217,-0.19999 -0.42464,-0.37362 -0.0529,-3.72482 -0.10749,-7.44962 -0.16058,-11.17443 -3.96275,-3.15849 -7.46519,-7.07532 -9.36315,-11.83058 -0.59198,-1.45917 -1.14553,-2.96335 -1.44156,-4.51226 -0.16113,-0.84303 -0.24597,-1.69931 -0.2192,-2.5688 -0.007,-1.98336 -0.24911,-3.96853 -0.25161,-5.95307 -0.002,-1.765 0.22911,-3.5295 0.31652,-5.2918 0.16009,-2.51737 1.19436,-4.86463 2.12695,-7.17357 2.94786,-6.23534 8.76695,-10.94423 15.33594,-12.91406 2.36648,-0.80203 4.88487,-0.68316 7.34563,-0.76847 2.76336,-0.0549 5.52726,-0.0725 8.29109,-0.085 z" /><path
         id="path34"
         style="fill:#facc52;fill-opacity:1;stroke-width:1"
         d="m 377.26704,112.43733 c -2.09366,0.17626 -4.03576,1.46772 -4.91923,3.38748 -0.67828,1.16137 -0.70469,2.56046 -1.33468,3.72776 -0.49116,0.57543 -1.56267,0.70964 -2.15234,0.22265 -0.8056,-1.10297 -0.4764,-2.63978 -1.27269,-3.76041 -0.9538,-1.74962 -2.57925,-3.45437 -4.71787,-3.44819 -2.33162,-0.20604 -5.01139,0.7742 -5.95939,3.0645 -0.80008,1.75421 -0.54935,4.02273 0.93932,5.33954 0.80287,0.85236 2.40624,1.4548 3.2704,0.3612 0.56508,-0.49179 0.12622,-1.21902 -0.40235,-1.51953 -0.75367,-0.51238 -1.58868,-1.21386 -1.46484,-2.23047 -0.10709,-1.05198 0.55514,-2.04687 1.5625,-2.36328 1.8261,-0.80855 3.91787,0.45925 4.62101,2.19718 0.7926,1.63309 0.3853,3.69003 -0.92893,4.93202 -2.75442,2.96879 -5.65858,5.81088 -8.73505,8.44502 -0.86077,0.83383 -2.16574,0.54435 -3.24586,0.51398 -1.71185,-0.0608 -3.04392,-1.71721 -3.15844,-3.34992 -0.15991,-1.34388 1.03642,-2.65616 2.41602,-2.42187 0.91992,-0.0299 1.27186,0.88331 1.71679,1.50391 0.71871,0.86315 2.05053,0.0623 2.34322,-0.79266 0.29112,-1.58788 -1.14466,-2.87842 -2.60513,-3.11538 -2.16749,-0.56216 -4.69985,0.33234 -5.74949,2.37781 -1.03852,1.90476 -0.87833,4.59708 0.88249,6.03328 0.9812,1.02 2.38518,1.37258 3.61524,1.97546 0.55781,0.42773 0.0537,1.147 -0.52343,1.2168 -1.77996,0.46625 -3.67717,1.41375 -4.30476,3.27777 -0.79863,2.21911 -0.0976,5.13789 2.15987,6.20386 1.90428,1.03079 4.62498,1.04215 6.0837,-0.75311 0.84127,-0.88879 0.57053,-2.81129 -0.81967,-2.92579 -0.85725,-0.18955 -1.25542,0.64927 -1.58985,1.26367 -0.91931,1.18264 -2.79505,0.45369 -3.29037,-0.77028 -0.66425,-1.38866 0.22348,-3.07286 1.41342,-3.86839 1.32882,-0.67103 2.93991,-0.98688 4.39648,-0.61523 1.87343,1.17743 3.34292,2.8852 4.9626,4.374 1.67138,1.6897 3.42413,3.31452 4.94365,5.14358 1.30205,2.21577 -0.25687,5.47261 -2.74804,5.96484 -1.72576,0.3516 -3.79632,-1.19121 -3.39258,-3.04297 0.16954,-1.08958 1.60878,-1.13488 1.86133,-2.14844 0.14627,-1.17832 -1.37735,-1.89683 -2.32742,-1.3279 -2.40618,1.14057 -2.92937,4.58585 -1.4196,6.65179 1.1178,1.70597 3.20518,2.63249 5.22205,2.40044 1.33451,-0.0621 2.80577,-0.40592 3.75808,-1.49588 1.20321,-1.20746 1.79116,-2.86109 2.07939,-4.50774 0.0929,-0.81205 0.89911,-1.16148 1.63103,-1.11907 0.69033,-0.16028 1.31009,0.3763 1.32014,1.07219 0.34874,2.71304 2.27491,5.49331 5.1084,5.95785 1.70122,0.32546 3.57198,0.0174 4.87102,-1.19764 1.5121,-1.10484 2.26963,-3.09525 1.79637,-4.91816 -0.2992,-1.51206 -1.54187,-3.19043 -3.25431,-2.99244 -0.53236,0.10371 -1.22209,0.40597 -1.16601,1.05274 -0.21568,0.57476 0.54305,0.93424 0.82705,1.3568 0.80361,0.7097 1.26629,2.00081 0.51013,2.91457 -0.76767,1.23956 -2.46559,1.73925 -3.76101,1.04308 -1.81358,-0.88304 -2.88796,-3.20882 -2.20703,-5.13477 0.91184,-1.55394 2.28724,-2.77267 3.48386,-4.10431 1.96775,-1.99382 3.90546,-4.05037 6.14309,-5.7453 1.41282,-0.64332 3.12354,-0.45476 4.51953,0.15039 1.44831,0.62914 2.59898,2.31408 2.00364,3.90135 -0.44256,1.33677 -2.43271,2.25857 -3.48215,1.04983 -0.36695,-0.59858 -0.72452,-1.52984 -1.60938,-1.30664 -0.95588,-0.002 -1.48091,1.23506 -1.20508,2.04687 0.62613,1.2183 1.85801,2.27081 3.30797,2.15059 1.23855,-0.0187 2.54916,0.0623 3.57272,-0.80056 1.98479,-1.55564 2.86471,-4.65997 1.36942,-6.84107 -0.78968,-1.32528 -2.25498,-2.153 -3.731,-2.3412 -0.42657,-0.0705 -0.99853,-0.39698 -0.91066,-0.85688 0.59695,-0.84448 1.79372,-1.04256 2.57515,-1.53354 2.04361,-1.06001 3.50443,-3.47165 2.85838,-5.78837 -0.40253,-1.76474 -1.90307,-3.16526 -3.69237,-3.44795 -1.89004,-0.38978 -4.32838,0.0496 -5.25097,1.94232 -0.50827,0.814 0.25329,1.85862 1.04199,2.11236 0.54225,0.0833 1.21306,0.066 1.4082,-0.5625 0.44141,-0.93126 1.53872,-1.57443 2.54095,-1.10029 1.21775,0.53937 1.75978,2.1992 1.28718,3.41084 -1.04193,2.32651 -4.37037,3.21473 -6.47266,1.81055 -2.6923,-2.4288 -5.15127,-5.10809 -7.68565,-7.70057 -1.01184,-1.11149 -2.43804,-2.25533 -2.26552,-3.93225 0.14247,-2.13155 1.98298,-4.30325 4.25,-4.07812 1.32732,0.15147 2.85746,1.31597 2.48047,2.79883 -0.22332,1.17972 -1.42913,1.80579 -1.79492,2.89648 0.0735,0.71361 0.85039,1.36186 1.5878,1.14157 2.34307,-0.3032 3.58734,-3.17308 2.85965,-5.26721 -0.82763,-2.49943 -3.38474,-4.38083 -6.05097,-4.16147 z m -9.41992,9.96094 c 1.49349,0 2.98698,0 4.48047,0 3.09985,3.14017 6.36334,6.12797 9.29412,9.42955 0.62897,0.72531 1.39618,1.86723 0.65119,2.77162 -2.74349,3.19065 -5.76451,6.13742 -8.77951,9.07023 -0.75932,0.72137 -1.55,1.56699 -2.68114,1.57613 -0.9748,0.14279 -1.96243,0.077 -2.94365,0.0919 -3.57255,-3.62474 -7.28321,-7.12109 -10.66815,-10.92421 -0.34973,-0.32199 -0.52405,-0.82071 -0.12677,-1.18126 3.23227,-3.68511 6.82071,-7.03832 10.25328,-10.53452 0.16553,-0.1331 0.26314,-0.38377 0.52016,-0.29946 z" /><path
         id="path33"
         style="fill:#facc52;fill-opacity:1;stroke-width:1"
         d="m 369.60102,126.11311 c -1.02573,0.20228 -2.25044,1.32538 -1.66846,2.43904 0.35031,0.96331 1.3982,1.83752 2.44971,1.33049 1.10442,-0.36968 1.75132,-1.75737 1.1015,-2.79006 -0.27887,-0.79534 -1.10683,-1.06731 -1.88275,-0.97947 z" /><path
         id="path32"
         style="fill:#facc52;fill-opacity:1;stroke-width:1"
         d="m 374.46626,128.99397 c -0.86006,0.0431 -1.52444,0.83681 -1.85156,1.56836 -0.10522,1.7204 2.45259,2.8481 3.63476,1.55469 0.72416,-0.78197 0.53976,-2.05124 -0.27774,-2.69571 -0.36237,-0.46545 -0.97405,-0.44706 -1.50546,-0.42734 z" /><path
         id="path31"
         style="fill:#facc52;fill-opacity:1;stroke-width:1"
         d="m 364.86665,128.9803 c -0.97987,-0.0228 -1.75996,0.84561 -1.66444,1.81519 -0.0714,1.0421 0.8063,2.096 1.90467,1.88208 0.97836,-0.0684 2.1878,-0.87011 2.00977,-1.96485 -0.27031,-1.00853 -1.15408,-1.84187 -2.25,-1.73242 z" /><path
         id="path30"
         style="fill:#facc52;fill-opacity:1;stroke-width:1"
         d="m 374.60493,134.8221 c -1.5882,0.0323 -2.58844,2.33811 -1.24686,3.3622 0.84367,0.78783 2.50275,0.78423 2.9441,-0.43474 0.54951,-1.14557 0.0198,-3.01621 -1.48867,-2.93365 -0.0695,-0.007 -0.13907,0.007 -0.20857,0.006 z" /><path
         id="path29"
         style="fill:#facc52;fill-opacity:1;stroke-width:1"
         d="m 364.86274,134.75764 c -1.38546,0.006 -1.82914,1.6995 -1.48359,2.80105 0.46012,1.80697 3.51449,1.42116 3.74726,-0.34597 0.17544,-0.92556 -0.45462,-1.91476 -1.25195,-2.33398 -0.32338,-0.11137 -0.67244,-0.1326 -1.01172,-0.1211 z" /><path
         id="path8"
         style="fill:#facc52;fill-opacity:1;stroke-width:1"
         d="m 369.79634,137.17366 c -1.03321,0.0494 -1.34447,1.30284 -1.51219,2.13427 -0.13898,0.71961 0.0399,1.76562 0.96339,1.78224 0.80343,0.13764 2.13244,0.21759 2.28512,-0.85401 0.14884,-1.09219 -0.15623,-2.53038 -1.23046,-3.04883 -0.16542,-0.0465 -0.33741,-0.0132 -0.50586,-0.0137 z" /></g></g></svg>
