<?xml version="1.0" encoding="UTF-8" standalone="no"?>
<!-- Created with Inkscape (http://www.inkscape.org/) -->

<svg
   width="1074.9218"
   height="1075.3773"
   viewBox="0 0 284.40638 284.52693"
   version="1.1"
   id="svg1"
   xml:space="preserve"
   xmlns="http://www.w3.org/2000/svg"
   xmlns:svg="http://www.w3.org/2000/svg"><defs
     id="defs1" /><g
     id="layer1"
     transform="translate(-1.0494701,-1.04947)"><rect
       style="display:inline;fill:#407b33;fill-opacity:1;stroke-width:1.32292;stroke-linecap:square;stroke-miterlimit:13.9;paint-order:fill markers stroke"
       id="rect1"
       width="284.40637"
       height="284.52689"
       x="1.0494701"
       y="1.0494701" /><path
       style="fill:#ffc700;fill-opacity:1;stroke-width:0.999999"
       d="m 101.21237,210.23144 c -0.13902,-0.13903 -0.21394,-0.19557 -0.31027,-0.317 -0.14226,-0.1793 -0.24909,-0.59592 -0.009,-2.40948 0.34657,-2.61457 0.63801,-4.05876 1.09865,-9.1337 l 1.60603,-17.69389 -12.194848,-0.36987 c -11.295785,-0.34265 -12.53594,-0.52299 -16.821227,-2.44609 -5.365794,-2.40803 -10.327866,-7.29842 -12.97301,-12.78555 l -1.776599,-3.68541 V 126.22823 91.066022 l 1.971444,-4.204499 c 2.554784,-5.448558 6.321405,-9.560489 11.26781,-12.300701 l 3.967751,-2.19808 h 65.461519 65.46153 l 3.54302,1.760709 c 4.98815,2.478831 9.39462,7.151527 12.09703,12.827875 l 2.31511,4.862856 v 34.039988 34.04 l -2.35752,4.97601 c -4.05886,8.56685 -10.35423,13.38254 -19.43967,14.87045 -2.41309,0.39517 -19.10566,0.72045 -37.09463,0.72283 l -32.70727,0.006 -13.32249,15.62407 c -2.4053,2.82084 -15.77551,17.26625 -19.78366,14.13791 z"
       id="path1" /><g
       id="g3"><path
         d="m 88.515093,123.49914 4.242852,-12.80899 h 0.08043 l 4.242851,12.80899 z m 12.105197,10.49653 h 4.68523 l -10.657395,-29.3179 h -3.720036 l -10.657399,29.3179 h 4.705342 l 2.25213,-6.5553 h 11.11989 z m 9.02777,0 h 4.20263 v -6.01238 l 3.29776,-3.74014 v 0 l 5.5499,9.75252 h 5.26837 l -8.18408,-12.72855 7.19877,-8.14386 h -5.02707 l -8.02321,9.79274 h -0.0804 v -18.23823 h -4.20263 z m 21.43459,-10.45631 q 0,3.29776 0.54293,5.02707 0.56303,1.72931 1.72931,2.99614 0.86466,0.9853 2.413,1.76953 1.52823,0.86465 3.92112,0.90487 2.47332,-0.0402 4.00155,-0.90487 0.82444,-0.36195 1.34725,-0.86466 0.58314,-0.44238 0.98531,-0.90487 1.24671,-1.26683 1.76953,-2.99614 0.50271,-1.72931 0.50271,-5.02707 0,-3.29777 -0.50271,-5.0673 -0.52282,-1.72931 -1.76953,-2.9157 -0.82444,-1.04563 -2.33256,-1.87007 -1.52823,-0.78423 -4.00155,-0.82444 -2.39289,0.0402 -3.92112,0.82444 -1.54834,0.82444 -2.413,1.87007 -1.16628,1.18639 -1.72931,2.9157 -0.54293,1.76953 -0.54293,5.0673 z m 13.01007,0.0402 q 0,2.13148 -0.20108,3.1369 -0.20108,1.02552 -0.82444,1.80974 -0.46249,0.60325 -1.36736,1.06574 -0.86466,0.44239 -2.01083,0.44239 -1.06574,0 -1.97062,-0.44239 -0.86466,-0.46249 -1.40758,-1.06574 -0.54292,-0.78422 -0.78422,-1.80974 -0.2413,-1.00542 -0.2413,-3.17711 0,-2.19181 0.2413,-3.21733 0.2413,-0.98531 0.78422,-1.72932 0.54292,-0.70379 1.40758,-1.10595 0.90488,-0.42228 1.97062,-0.42228 1.14617,0 2.01083,0.42228 0.90487,0.40216 1.36736,1.10595 0.62336,0.74401 0.82444,1.72932 0.20108,1.02552 0.20108,3.25754 z m 10.19406,10.4161 h 4.20263 v -12.42693 q 0,-2.1918 1.18639,-3.33798 1.16629,-1.16628 2.97603,-1.16628 1.80975,0 2.95592,1.16628 1.16628,1.14618 1.16628,3.33798 v 12.42693 h 4.20264 v -13.87473 q -0.10054,-3.57927 -2.23202,-5.42924 -2.15159,-1.82985 -4.74556,-1.82985 -3.35809,0 -5.42924,2.47332 h -0.0804 v -2.21191 h -4.20263 z m 23.94812,-20.87241 h -2.09126 v 3.19721 h 2.09126 v 12.52748 q 0,2.47332 1.4478,3.78036 1.40758,1.36736 3.6195,1.36736 h 2.1918 v -3.96133 h -1.56845 q -1.52823,0.0402 -1.48801,-1.54834 v -12.16553 h 3.05646 v -3.19721 h -3.05646 v -6.35423 h -4.20264 z m 23.74706,20.87241 h 4.20263 v -14.25678 q -0.0402,-3.82058 -2.39289,-5.38903 -2.35267,-1.52823 -6.29389,-1.48801 -4.66513,-0.0804 -7.05802,3.05646 l 3.29776,2.51354 v 0 q 0.54293,-0.90488 1.48802,-1.28693 0.90487,-0.32174 2.47332,-0.32174 4.32328,-0.0804 4.28307,2.67441 v 2.1918 h -5.8113 q -3.33798,0.0402 -5.06729,1.80975 -1.72932,1.72931 -1.72932,4.3635 0,2.75484 1.99072,4.52437 1.89018,1.80974 5.38903,1.84996 2.13148,0 3.33798,-0.52281 1.2266,-0.50271 1.80974,-1.56845 h 0.0804 z m 0,-7.33953 q 0,2.35267 -0.98531,3.01625 -1.08585,0.66357 -3.72004,0.62335 -2.09126,0 -2.99613,-0.82444 -0.94509,-0.744 -0.94509,-1.80974 -0.0402,-2.43311 3.61949,-2.51354 h 5.02708 z"
         id="text1"
         style="font-size:41.1818px;line-height:0.9;font-family:'DIN Alternate';-inkscape-font-specification:'DIN Alternate, Normal';letter-spacing:1.5877px;word-spacing:-0.226816px;fill:#2c2c30;stroke-width:1.32292;stroke-linecap:square;stroke-miterlimit:13.9;paint-order:fill markers stroke"
         aria-label="Akonta" /></g><path
       id="text2"
       style="font-weight:bold;font-size:24.0196px;line-height:0.9;font-family:'DIN Alternate';-inkscape-font-specification:'DIN Alternate, Bold';letter-spacing:0.926042px;word-spacing:-0.132292px;fill:#2c2c30;stroke-width:1.32292;stroke-linecap:square;stroke-miterlimit:13.9;paint-order:fill markers stroke"
       d="m 185.74219,157.79102 c 0.91471,0 1.82942,0 2.74414,0 0.4376,-1.27471 0.87428,-2.54973 1.3125,-3.82422 2.16211,0 4.32422,0 6.48633,0 0.44132,1.27476 0.88282,2.54947 1.32422,3.82422 0.91145,0 1.82291,0 2.73437,0 -2.07227,-5.69987 -4.14453,-11.39974 -6.2168,-17.09961 -0.7233,0 -1.44661,0 -2.16992,0 -2.07161,5.69987 -4.14323,11.39974 -6.21484,17.09961 z m 17.35742,0 c 0.86393,0 1.72786,0 2.5918,0 0,-5.69987 0,-11.39974 0,-17.09961 -0.86394,0 -1.72787,0 -2.5918,0 0,5.69987 0,11.39974 0,17.09961 z m -9.54883,-12.14844 c 0.6654,2.00845 1.33049,4.017 1.9961,6.02539 -1.66537,0 -3.33073,0 -4.9961,0 0.83289,-2.51426 1.66643,-5.0283 2.49805,-7.54297 0.16732,0.50586 0.33463,1.01172 0.50195,1.51758 z" /><g
       id="g4"><path
         d="m 88.515093,123.49914 4.242852,-12.80899 h 0.08043 l 4.242851,12.80899 z m 12.105197,10.49653 h 4.68523 l -10.657395,-29.3179 h -3.720036 l -10.657399,29.3179 h 4.705342 l 2.25213,-6.5553 h 11.11989 z m 9.02777,0 h 4.20263 v -6.01238 l 3.29776,-3.74014 v 0 l 5.5499,9.75252 h 5.26837 l -8.18408,-12.72855 7.19877,-8.14386 h -5.02707 l -8.02321,9.79274 h -0.0804 v -18.23823 h -4.20263 z m 21.43459,-10.45631 q 0,3.29776 0.54293,5.02707 0.56303,1.72931 1.72931,2.99614 0.86466,0.9853 2.413,1.76953 1.52823,0.86465 3.92112,0.90487 2.47332,-0.0402 4.00155,-0.90487 0.82444,-0.36195 1.34725,-0.86466 0.58314,-0.44238 0.98531,-0.90487 1.24671,-1.26683 1.76953,-2.99614 0.50271,-1.72931 0.50271,-5.02707 0,-3.29777 -0.50271,-5.0673 -0.52282,-1.72931 -1.76953,-2.9157 -0.82444,-1.04563 -2.33256,-1.87007 -1.52823,-0.78423 -4.00155,-0.82444 -2.39289,0.0402 -3.92112,0.82444 -1.54834,0.82444 -2.413,1.87007 -1.16628,1.18639 -1.72931,2.9157 -0.54293,1.76953 -0.54293,5.0673 z m 13.01007,0.0402 q 0,2.13148 -0.20108,3.1369 -0.20108,1.02552 -0.82444,1.80974 -0.46249,0.60325 -1.36736,1.06574 -0.86466,0.44239 -2.01083,0.44239 -1.06574,0 -1.97062,-0.44239 -0.86466,-0.46249 -1.40758,-1.06574 -0.54292,-0.78422 -0.78422,-1.80974 -0.2413,-1.00542 -0.2413,-3.17711 0,-2.19181 0.2413,-3.21733 0.2413,-0.98531 0.78422,-1.72932 0.54292,-0.70379 1.40758,-1.10595 0.90488,-0.42228 1.97062,-0.42228 1.14617,0 2.01083,0.42228 0.90487,0.40216 1.36736,1.10595 0.62336,0.74401 0.82444,1.72932 0.20108,1.02552 0.20108,3.25754 z m 10.19406,10.4161 h 4.20263 v -12.42693 q 0,-2.1918 1.18639,-3.33798 1.16629,-1.16628 2.97603,-1.16628 1.80975,0 2.95592,1.16628 1.16628,1.14618 1.16628,3.33798 v 12.42693 h 4.20264 v -13.87473 q -0.10054,-3.57927 -2.23202,-5.42924 -2.15159,-1.82985 -4.74556,-1.82985 -3.35809,0 -5.42924,2.47332 h -0.0804 v -2.21191 h -4.20263 z m 23.94812,-20.87241 h -2.09126 v 3.19721 h 2.09126 v 12.52748 q 0,2.47332 1.4478,3.78036 1.40758,1.36736 3.6195,1.36736 h 2.1918 v -3.96133 h -1.56845 q -1.52823,0.0402 -1.48801,-1.54834 v -12.16553 h 3.05646 v -3.19721 h -3.05646 v -6.35423 h -4.20264 z m 23.74706,20.87241 h 4.20263 v -14.25678 q -0.0402,-3.82058 -2.39289,-5.38903 -2.35267,-1.52823 -6.29389,-1.48801 -4.66513,-0.0804 -7.05802,3.05646 l 3.29776,2.51354 v 0 q 0.54293,-0.90488 1.48802,-1.28693 0.90487,-0.32174 2.47332,-0.32174 4.32328,-0.0804 4.28307,2.67441 v 2.1918 h -5.8113 q -3.33798,0.0402 -5.06729,1.80975 -1.72932,1.72931 -1.72932,4.3635 0,2.75484 1.99072,4.52437 1.89018,1.80974 5.38903,1.84996 2.13148,0 3.33798,-0.52281 1.2266,-0.50271 1.80974,-1.56845 h 0.0804 z m 0,-7.33953 q 0,2.35267 -0.98531,3.01625 -1.08585,0.66357 -3.72004,0.62335 -2.09126,0 -2.99613,-0.82444 -0.94509,-0.744 -0.94509,-1.80974 -0.0402,-2.43311 3.61949,-2.51354 h 5.02708 z"
         id="path3"
         style="font-size:41.1818px;line-height:0.9;font-family:'DIN Alternate';-inkscape-font-specification:'DIN Alternate, Normal';letter-spacing:1.5877px;word-spacing:-0.226816px;fill:#2c2c30;stroke-width:1.32292;stroke-linecap:square;stroke-miterlimit:13.9;paint-order:fill markers stroke"
         aria-label="Akonta" /></g><g
       id="g5"><path
         d="m 88.515093,123.49914 4.242852,-12.80899 h 0.08043 l 4.242851,12.80899 z m 12.105197,10.49653 h 4.68523 l -10.657395,-29.3179 h -3.720036 l -10.657399,29.3179 h 4.705342 l 2.25213,-6.5553 h 11.11989 z m 9.02777,0 h 4.20263 v -6.01238 l 3.29776,-3.74014 v 0 l 5.5499,9.75252 h 5.26837 l -8.18408,-12.72855 7.19877,-8.14386 h -5.02707 l -8.02321,9.79274 h -0.0804 v -18.23823 h -4.20263 z m 21.43459,-10.45631 q 0,3.29776 0.54293,5.02707 0.56303,1.72931 1.72931,2.99614 0.86466,0.9853 2.413,1.76953 1.52823,0.86465 3.92112,0.90487 2.47332,-0.0402 4.00155,-0.90487 0.82444,-0.36195 1.34725,-0.86466 0.58314,-0.44238 0.98531,-0.90487 1.24671,-1.26683 1.76953,-2.99614 0.50271,-1.72931 0.50271,-5.02707 0,-3.29777 -0.50271,-5.0673 -0.52282,-1.72931 -1.76953,-2.9157 -0.82444,-1.04563 -2.33256,-1.87007 -1.52823,-0.78423 -4.00155,-0.82444 -2.39289,0.0402 -3.92112,0.82444 -1.54834,0.82444 -2.413,1.87007 -1.16628,1.18639 -1.72931,2.9157 -0.54293,1.76953 -0.54293,5.0673 z m 13.01007,0.0402 q 0,2.13148 -0.20108,3.1369 -0.20108,1.02552 -0.82444,1.80974 -0.46249,0.60325 -1.36736,1.06574 -0.86466,0.44239 -2.01083,0.44239 -1.06574,0 -1.97062,-0.44239 -0.86466,-0.46249 -1.40758,-1.06574 -0.54292,-0.78422 -0.78422,-1.80974 -0.2413,-1.00542 -0.2413,-3.17711 0,-2.19181 0.2413,-3.21733 0.2413,-0.98531 0.78422,-1.72932 0.54292,-0.70379 1.40758,-1.10595 0.90488,-0.42228 1.97062,-0.42228 1.14617,0 2.01083,0.42228 0.90487,0.40216 1.36736,1.10595 0.62336,0.74401 0.82444,1.72932 0.20108,1.02552 0.20108,3.25754 z m 10.19406,10.4161 h 4.20263 v -12.42693 q 0,-2.1918 1.18639,-3.33798 1.16629,-1.16628 2.97603,-1.16628 1.80975,0 2.95592,1.16628 1.16628,1.14618 1.16628,3.33798 v 12.42693 h 4.20264 v -13.87473 q -0.10054,-3.57927 -2.23202,-5.42924 -2.15159,-1.82985 -4.74556,-1.82985 -3.35809,0 -5.42924,2.47332 h -0.0804 v -2.21191 h -4.20263 z m 23.94812,-20.87241 h -2.09126 v 3.19721 h 2.09126 v 12.52748 q 0,2.47332 1.4478,3.78036 1.40758,1.36736 3.6195,1.36736 h 2.1918 v -3.96133 h -1.56845 q -1.52823,0.0402 -1.48801,-1.54834 v -12.16553 h 3.05646 v -3.19721 h -3.05646 v -6.35423 h -4.20264 z m 23.74706,20.87241 h 4.20263 v -14.25678 q -0.0402,-3.82058 -2.39289,-5.38903 -2.35267,-1.52823 -6.29389,-1.48801 -4.66513,-0.0804 -7.05802,3.05646 l 3.29776,2.51354 v 0 q 0.54293,-0.90488 1.48802,-1.28693 0.90487,-0.32174 2.47332,-0.32174 4.32328,-0.0804 4.28307,2.67441 v 2.1918 h -5.8113 q -3.33798,0.0402 -5.06729,1.80975 -1.72932,1.72931 -1.72932,4.3635 0,2.75484 1.99072,4.52437 1.89018,1.80974 5.38903,1.84996 2.13148,0 3.33798,-0.52281 1.2266,-0.50271 1.80974,-1.56845 h 0.0804 z m 0,-7.33953 q 0,2.35267 -0.98531,3.01625 -1.08585,0.66357 -3.72004,0.62335 -2.09126,0 -2.99613,-0.82444 -0.94509,-0.744 -0.94509,-1.80974 -0.0402,-2.43311 3.61949,-2.51354 h 5.02708 z"
         id="path4"
         style="font-size:41.1818px;line-height:0.9;font-family:'DIN Alternate';-inkscape-font-specification:'DIN Alternate, Normal';letter-spacing:1.5877px;word-spacing:-0.226816px;fill:#2c2c30;stroke-width:1.32292;stroke-linecap:square;stroke-miterlimit:13.9;paint-order:fill markers stroke"
         aria-label="Akonta" /></g></g></svg>
